<?xml version="1.0" encoding="UTF-8" standalone="no"?>
<!DOCTYPE svg PUBLIC "-//W3C//DTDSVG1.1//EN" "http://www.w3.org/Graphics/SVG/1.1/DTD/svg11.dtd">
<svg width="100%" height="100%" viewBox="0 0 1110 284" version="1.1" xmlns="http://www.w3.org/2000/svg" xmlnsXlink="http://www.w3.org/1999/xlink" xmlSpace="preserve" style="fill-rule:evenodd;clip-rule:evenodd;stroke-linejoin:round;stroke-miterlimit:2;">
  <g transform="matrix(1,0,0,1,-860.971,-857.973)">
    <g transform="matrix(0.311121,0,0,0.311121,635.798,562.876)">
      <path d="M1205.17,1209.16C1204.12,1212.33 1203.59,1217.88 1203.59,1225.8C1203.59,1231.08 1208.47,1237.03 1218.25,1243.63C1228.02,1250.23 1240.69,1256.44 1256.28,1262.25C1271.86,1268.06 1289.68,1272.94 1309.76,1276.9C1329.83,1280.87 1350.16,1282.85 1370.76,1282.85C1410.38,1282.85 1439.43,1278.23 1457.92,1268.98C1476.4,1259.74 1485.65,1246.4 1485.65,1228.97C1485.65,1219.46 1477.59,1212.73 1461.48,1208.77C1445.37,1204.81 1425.17,1201.64 1400.87,1199.26C1376.57,1196.88 1350.43,1194.24 1322.43,1191.34C1294.44,1188.43 1268.29,1183.15 1244,1175.49C1219.7,1167.83 1199.5,1156.74 1183.38,1142.21C1167.28,1127.69 1159.22,1107.75 1159.22,1082.39C1159.22,1062.32 1163.84,1044.1 1173.09,1027.73C1182.33,1011.35 1195.27,997.355 1211.91,985.735C1228.55,974.114 1248.75,965.003 1272.52,958.4C1296.29,951.798 1322.7,948.496 1351.75,948.496C1378.69,948.496 1403.78,950.213 1427.02,953.646C1450.26,957.08 1470.86,960.909 1488.82,965.135C1506.78,969.36 1521.83,973.19 1533.98,976.623C1546.13,980.056 1554.84,981.773 1560.12,981.773C1565.4,981.773 1569.63,980.585 1572.8,978.208C1575.97,975.831 1578.87,973.058 1581.52,969.889L1590.23,973.058L1535.56,1083.19L1526.05,1078.43L1526.05,1069.72C1526.05,1064.96 1520.9,1060.08 1510.61,1055.06C1500.31,1050.04 1487.23,1045.55 1471.39,1041.59C1455.54,1037.63 1437.85,1034.33 1418.3,1031.69C1398.76,1029.05 1379.74,1027.73 1361.26,1027.73C1326.92,1027.73 1302.89,1031.69 1289.16,1039.61C1275.42,1047.53 1268.56,1055.99 1268.56,1064.96C1268.56,1073.94 1273.31,1080.68 1282.82,1085.17C1292.33,1089.66 1304.74,1092.96 1320.06,1095.07C1335.37,1097.18 1352.81,1098.9 1372.35,1100.22C1391.89,1101.54 1411.96,1103.52 1432.56,1106.16C1453.16,1108.81 1473.23,1112.5 1492.78,1117.26C1512.32,1122.01 1529.75,1129.01 1545.07,1138.25C1560.39,1147.5 1572.8,1159.64 1582.31,1174.7C1591.82,1189.75 1596.57,1208.63 1596.57,1231.35C1596.57,1248.78 1593,1265.94 1585.87,1282.85C1578.74,1299.75 1566.59,1314.93 1549.43,1328.4C1532.26,1341.87 1509.28,1352.57 1480.5,1360.49C1451.71,1368.41 1415.92,1372.38 1373.14,1372.38C1339.86,1372.38 1311.21,1370.79 1287.18,1367.62C1263.14,1364.45 1242.67,1360.62 1225.77,1356.13C1208.87,1351.64 1195.53,1347.55 1185.76,1343.85C1175.99,1340.16 1168.73,1338.31 1163.97,1338.31C1160.8,1338.31 1158.03,1339.36 1155.65,1341.48C1153.28,1343.59 1150.77,1345.97 1148.13,1348.61L1138.62,1346.23L1197.25,1205.2L1205.17,1209.16Z" style="fill:rgb(34,104,255);fill-rule:nonzero;"/>
      <path d="M1876.25,1100.62C1861.46,1100.62 1847.46,1102.86 1834.26,1107.35C1821.05,1111.84 1809.43,1118.18 1799.4,1126.37C1789.36,1134.56 1781.57,1144.46 1776.03,1156.08C1770.48,1167.7 1767.71,1180.9 1767.71,1195.69C1767.71,1210.48 1770.48,1223.69 1776.03,1235.31C1781.57,1246.93 1789.36,1256.83 1799.4,1265.02C1809.43,1273.21 1821.05,1279.55 1834.26,1284.04C1847.46,1288.53 1861.46,1290.77 1876.25,1290.77C1891.57,1290.77 1905.7,1288.53 1918.64,1284.04C1931.58,1279.55 1943.07,1273.21 1953.1,1265.02C1963.14,1256.83 1970.93,1246.93 1976.48,1235.31C1982.02,1223.69 1984.8,1210.48 1984.8,1195.69C1984.8,1180.9 1982.02,1167.7 1976.48,1156.08C1970.93,1144.46 1963.14,1134.56 1953.1,1126.37C1943.07,1118.18 1931.58,1111.84 1918.64,1107.35C1905.7,1102.86 1891.57,1100.62 1876.25,1100.62ZM1876.25,1016.63C1901.08,1016.63 1926.03,1020.07 1951.12,1026.93C1976.21,1033.8 1998.92,1044.5 2019.26,1059.02C2039.6,1073.55 2056.1,1092.17 2068.78,1114.88C2081.46,1137.59 2087.8,1164.53 2087.8,1195.69C2087.8,1227.39 2081.46,1254.46 2068.78,1276.9C2056.1,1299.35 2039.6,1317.71 2019.26,1331.97C1998.92,1346.23 1976.21,1356.53 1951.12,1362.87C1926.03,1369.21 1901.08,1372.38 1876.25,1372.38C1851.43,1372.38 1826.47,1369.21 1801.38,1362.87C1776.29,1356.53 1753.58,1346.23 1733.24,1331.97C1712.9,1317.71 1696.4,1299.35 1683.72,1276.9C1671.05,1254.46 1664.71,1227.39 1664.71,1195.69C1664.71,1164.53 1671.05,1137.59 1683.72,1114.88C1696.4,1092.17 1712.9,1073.55 1733.24,1059.02C1753.58,1044.5 1776.29,1033.8 1801.38,1026.93C1826.47,1020.07 1851.43,1016.63 1876.25,1016.63Z" style="fill:rgb(34,104,255);fill-rule:nonzero;"/>
      <path d="M2497.41,1155.29L2486.32,1149.74C2486.85,1147.63 2487.51,1145.52 2488.3,1143.4C2489.1,1141.29 2489.49,1138.91 2489.49,1136.27C2489.49,1133.1 2486.19,1129.4 2479.59,1125.18C2472.99,1120.95 2464.53,1117.12 2454.23,1113.69C2443.93,1110.26 2432.31,1107.22 2419.37,1104.58C2406.43,1101.94 2393.36,1100.62 2380.15,1100.62C2365.36,1100.62 2350.31,1102.47 2334.99,1106.16C2319.68,1109.86 2305.94,1115.54 2293.79,1123.2C2281.64,1130.86 2271.61,1140.63 2263.69,1152.51C2255.76,1164.4 2251.8,1178.79 2251.8,1195.69C2251.8,1212.07 2255.76,1226.33 2263.69,1238.48C2271.61,1250.63 2281.64,1260.53 2293.79,1268.19C2305.94,1275.85 2319.68,1281.53 2334.99,1285.22C2350.31,1288.92 2365.36,1290.77 2380.15,1290.77C2396,1290.77 2410.92,1288.79 2424.92,1284.83C2438.92,1280.87 2451.33,1276.11 2462.16,1270.57C2472.99,1265.02 2481.44,1259.47 2487.51,1253.93C2493.59,1248.38 2496.62,1244.29 2496.62,1241.65L2496.62,1234.52C2496.62,1231.35 2496.36,1228.97 2495.83,1227.39L2504.55,1221.84L2579.81,1330.38L2570.31,1335.93C2565.55,1330.12 2561.33,1327.22 2557.63,1327.22C2555.52,1327.22 2549.84,1329.59 2540.6,1334.35C2531.35,1339.1 2519.07,1344.51 2503.75,1350.59C2488.43,1356.66 2470.34,1361.81 2449.48,1366.04C2428.62,1370.26 2405.51,1372.38 2380.15,1372.38C2351.1,1372.38 2322.71,1369.47 2294.98,1363.66C2267.25,1357.85 2242.56,1347.95 2220.9,1333.95C2199.24,1319.95 2181.82,1301.6 2168.61,1278.89C2155.41,1256.17 2148.8,1228.44 2148.8,1195.69C2148.8,1163.47 2155.41,1136.01 2168.61,1113.3C2181.82,1090.58 2199.24,1072.1 2220.9,1057.83C2242.56,1043.57 2267.25,1033.14 2294.98,1026.54C2322.71,1019.94 2351.1,1016.63 2380.15,1016.63C2397.58,1016.63 2414.49,1018.09 2430.86,1020.99C2447.24,1023.9 2462.29,1026.93 2476.02,1030.1C2489.76,1033.27 2501.64,1036.31 2511.68,1039.21C2521.71,1042.12 2528.84,1043.57 2533.07,1043.57C2535.71,1043.57 2538.09,1042.78 2540.2,1041.2C2542.31,1039.61 2543.9,1038.03 2544.95,1036.44L2554.46,1039.61L2497.41,1155.29Z" style="fill:rgb(34,104,255);fill-rule:nonzero;"/>
      <path d="M2813.54,1030.9C2805.62,1031.42 2799.41,1032.48 2794.92,1034.07C2790.43,1035.65 2788.19,1039.35 2788.19,1045.16L2788.19,1346.23C2788.19,1352.04 2790.43,1355.74 2794.92,1357.32C2799.41,1358.91 2805.62,1359.96 2813.54,1360.49L2813.54,1370L2656.67,1370L2656.67,1360.49C2664.59,1359.96 2670.8,1358.91 2675.29,1357.32C2679.78,1355.74 2682.02,1352.04 2682.02,1346.23L2682.02,1045.16C2682.02,1039.35 2679.78,1035.65 2675.29,1034.07C2670.8,1032.48 2664.59,1031.42 2656.67,1030.9L2656.67,1021.39L2813.54,1021.39L2813.54,1030.9Z" style="fill:rgb(34,104,255);fill-rule:nonzero;"/>
      <path d="M3226.33,1360.49C3227.91,1360.49 3230.03,1360.23 3232.67,1359.7C3235.31,1359.17 3236.63,1357.06 3236.63,1353.36C3236.63,1351.25 3235.71,1347.95 3233.86,1343.46C3232.01,1338.97 3229.89,1334.08 3227.52,1328.8C3225.14,1323.52 3222.63,1318.24 3219.99,1312.95C3217.35,1307.67 3215.24,1303.18 3213.65,1299.49L3029.84,1299.49C3028.78,1303.18 3027.07,1307.67 3024.69,1312.95C3022.31,1318.24 3019.8,1323.52 3017.16,1328.8C3014.52,1334.08 3012.14,1338.97 3010.03,1343.46C3007.92,1347.95 3006.86,1351.25 3006.86,1353.36C3006.86,1357.06 3008.18,1359.17 3010.83,1359.7C3013.47,1360.23 3015.58,1360.49 3017.16,1360.49L3017.16,1370L2898.32,1370L2898.32,1360.49C2901.49,1360.49 2904.66,1359.83 2907.83,1358.51C2910.99,1357.19 2913.11,1355.21 2914.16,1352.57C2930.01,1315.6 2946.12,1279.02 2962.49,1242.84C2978.87,1206.65 2993.53,1173.91 3006.47,1144.59C3019.41,1115.28 3030.1,1090.98 3038.55,1071.7C3047.01,1052.42 3051.23,1041.46 3051.23,1038.82C3051.23,1034.07 3047.8,1031.42 3040.93,1030.9L3040.93,1021.39L3206.52,1021.39L3206.52,1030.9C3199.66,1031.42 3196.22,1034.07 3196.22,1038.82C3196.22,1040.4 3199,1047.4 3204.54,1059.82C3210.09,1072.23 3217.35,1087.81 3226.33,1106.56C3235.31,1125.31 3245.21,1146.04 3256.04,1168.76C3266.87,1191.47 3277.7,1214.18 3288.53,1236.89C3299.35,1259.61 3309.52,1281.13 3319.03,1301.47C3328.54,1321.8 3336.2,1338.84 3342.01,1352.57C3343.06,1355.21 3345.18,1357.19 3348.34,1358.51C3351.51,1359.83 3354.68,1360.49 3357.85,1360.49L3357.85,1370L3226.33,1370L3226.33,1360.49ZM3120.16,1103.79L3055.19,1242.44L3186.72,1242.44L3120.16,1103.79Z" style="fill:rgb(34,104,255);fill-rule:nonzero;"/>
      <path d="M3463.23,1045.16C3463.23,1039.35 3461.12,1035.65 3456.89,1034.07C3452.66,1032.48 3447.65,1031.42 3441.84,1030.9L3441.84,1021.39L3590,1021.39L3590,1030.9C3584.19,1031.42 3579.3,1032.48 3575.34,1034.07C3571.38,1035.65 3569.4,1039.35 3569.4,1045.16L3569.4,1289.18L3786.49,1289.18C3789.66,1289.18 3792.83,1288 3795.99,1285.62C3799.16,1283.24 3800.75,1277.83 3800.75,1269.38L3810.26,1269.38L3810.26,1387.43L3800.75,1387.43C3800.75,1378.98 3799.16,1373.96 3795.99,1372.38C3792.83,1370.79 3789.66,1370 3786.49,1370L3441.84,1370L3441.84,1360.49C3447.65,1359.96 3452.66,1358.91 3456.89,1357.32C3461.12,1355.74 3463.23,1352.04 3463.23,1346.23L3463.23,1045.16Z" style="fill:rgb(34,104,255);fill-rule:nonzero;"/>
      <g transform="matrix(1,0,0,1,15.3443,-331.946)">
        <path d="M730.585,1785.16C730.585,1781.47 729.397,1778.43 727.02,1776.05C724.643,1773.68 718.437,1771.96 708.401,1770.9L708.401,1761.4L899.345,1761.4L899.345,1770.9C890.366,1771.43 884.424,1772.62 881.518,1774.47C878.613,1776.32 877.161,1778.56 877.161,1781.2C877.161,1782.26 880.594,1787.01 887.461,1795.47C894.327,1803.92 903.307,1814.48 914.399,1827.16C925.491,1839.83 938.036,1853.96 952.033,1869.55C966.03,1885.13 980.16,1900.71 994.421,1916.29C1008.68,1931.87 1022.42,1946.66 1035.62,1960.66C1048.83,1974.66 1060.18,1986.67 1069.69,1996.71L1069.69,1785.16C1069.69,1776.19 1064.14,1771.43 1053.05,1770.9L1053.05,1761.4L1198.04,1761.4L1198.04,1770.9C1188.01,1771.96 1181.8,1773.68 1179.42,1776.05C1177.05,1778.43 1175.86,1781.47 1175.86,1785.16L1175.86,2154.38C1175.86,2158.07 1177.05,2161.11 1179.42,2163.49C1181.8,2165.87 1188.01,2167.58 1198.04,2168.64L1198.04,2178.15L1047.51,2178.15L1047.51,2168.64C1054.9,2168.64 1059.79,2167.85 1062.16,2166.26C1064.54,2164.68 1065.73,2162.56 1065.73,2159.92C1065.73,2158.34 1064.94,2156.36 1063.35,2153.98C1061.77,2151.6 1058.33,2147.51 1053.05,2141.7C1047.77,2135.89 1039.98,2127.57 1029.68,2116.74C1019.38,2105.91 1005.78,2091.39 988.875,2073.17C971.973,2054.94 951.109,2032.23 926.283,2005.03C901.458,1977.83 871.615,1944.68 836.754,1905.6L836.754,2154.38C836.754,2158.07 837.942,2161.11 840.319,2163.49C842.696,2165.87 848.902,2167.58 858.938,2168.64L858.938,2178.15L708.401,2178.15L708.401,2168.64C718.437,2167.58 724.643,2165.87 727.02,2163.49C729.397,2161.11 730.585,2158.07 730.585,2154.38L730.585,1785.16Z" style="fill:rgb(34,104,255);fill-rule:nonzero;"/>
      </g>
      <g transform="matrix(1,0,0,1,15.3443,-331.946)">
        <path d="M1662.33,2108.42C1672.89,2108.42 1679.76,2101.82 1682.93,2088.62L1692.44,2088.62L1692.44,2192.41L1684.51,2192.41C1681.87,2185.01 1679.1,2180.79 1676.19,2179.73C1673.29,2178.67 1668.67,2178.15 1662.33,2178.15L1308.96,2178.15L1308.96,2168.64C1314.78,2168.11 1319.92,2167.05 1324.41,2165.47C1328.9,2163.89 1331.15,2160.19 1331.15,2154.38L1331.15,1853.3C1331.15,1847.49 1328.9,1843.8 1324.41,1842.21C1319.92,1840.63 1314.78,1839.57 1308.96,1839.04L1308.96,1829.53L1668.67,1829.53C1671.84,1829.53 1675.01,1828.48 1678.18,1826.37C1681.35,1824.25 1682.93,1819.5 1682.93,1812.1L1692.44,1812.1L1692.44,1918.27L1682.93,1918.27C1682.93,1910.35 1681.35,1905.2 1678.18,1902.82C1675.01,1900.44 1671.84,1899.26 1668.67,1899.26L1437.32,1899.26L1437.32,1963.43L1586.27,1963.43C1589.44,1963.43 1592.61,1962.24 1595.78,1959.87C1598.95,1957.49 1600.53,1952.61 1600.53,1945.21L1610.04,1945.21L1610.04,2048.21L1600.53,2048.21C1600.53,2040.81 1598.95,2035.93 1595.78,2033.55C1592.61,2031.17 1589.44,2029.99 1586.27,2029.99L1437.32,2029.99L1437.32,2108.42L1662.33,2108.42Z" style="fill:rgb(34,104,255);fill-rule:nonzero;"/>
      </g>
      <g transform="matrix(1,0,0,1,15.3443,-331.946)">
        <path d="M2131.37,1829.53C2134.54,1829.53 2137.71,1828.48 2140.88,1826.37C2144.05,1824.25 2145.63,1819.5 2145.63,1812.1L2155.14,1812.1L2155.14,1927.78L2145.63,1927.78C2145.63,1920.38 2144.05,1915.63 2140.88,1913.52C2137.71,1911.4 2134.54,1910.35 2131.37,1910.35L2018.07,1910.35L2018.07,2154.38C2018.07,2160.19 2020.05,2163.89 2024.02,2165.47C2027.98,2167.05 2032.07,2168.11 2036.3,2168.64L2036.3,2178.15L1893.68,2178.15L1893.68,2168.64C1897.91,2168.11 1902,2167.05 1905.96,2165.47C1909.92,2163.89 1911.9,2160.19 1911.9,2154.38L1911.9,1910.35L1798.61,1910.35C1795.44,1910.35 1792.27,1911.4 1789.1,1913.52C1785.93,1915.63 1784.34,1920.38 1784.34,1927.78L1774.84,1927.78L1774.84,1812.1L1784.34,1812.1C1784.34,1819.5 1785.93,1824.25 1789.1,1826.37C1792.27,1828.48 1795.44,1829.53 1798.61,1829.53L2131.37,1829.53Z" style="fill:rgb(34,104,255);fill-rule:nonzero;"/>
      </g>
      <g transform="matrix(1,0,0,1,15.3443,-331.946)">
        <path d="M2346.09,1839.04C2341.33,1839.04 2336.58,1839.97 2331.82,1841.82C2327.07,1843.66 2324.69,1847.49 2324.69,1853.3C2324.69,1855.42 2326.01,1861.23 2328.65,1870.73C2331.3,1880.24 2334.73,1891.47 2338.95,1904.41C2343.18,1917.35 2347.67,1931.35 2352.42,1946.4C2357.18,1961.45 2361.8,1975.98 2366.29,1989.98C2370.78,2003.97 2374.74,2016.65 2378.17,2028.01C2381.61,2039.36 2383.85,2047.68 2384.91,2052.96L2386.49,2052.96C2387.55,2047.15 2390.06,2038.7 2394.02,2027.61C2397.98,2016.52 2402.6,2004.1 2407.88,1990.37C2413.17,1976.64 2418.71,1962.24 2424.52,1947.19C2430.33,1932.14 2435.75,1918.27 2440.76,1905.6C2445.78,1892.92 2449.88,1881.83 2453.05,1872.32C2456.22,1862.81 2457.8,1856.47 2457.8,1853.3C2457.8,1847.49 2455.42,1843.66 2450.67,1841.82C2445.91,1839.97 2441.16,1839.04 2436.41,1839.04L2436.41,1829.53L2597.24,1829.53L2597.24,1839.04C2591.96,1839.04 2586.94,1839.97 2582.19,1841.82C2577.44,1843.66 2575.06,1847.49 2575.06,1853.3C2575.06,1854.89 2576.78,1860.43 2580.21,1869.94C2583.64,1879.45 2587.87,1890.94 2592.89,1904.41C2597.9,1917.88 2603.32,1932.53 2609.13,1948.38C2614.94,1964.23 2620.62,1979.28 2626.16,1993.54C2631.71,2007.8 2636.46,2020.35 2640.42,2031.17C2644.39,2042 2646.89,2049.26 2647.95,2052.96L2649.54,2052.96C2650.59,2047.15 2652.84,2038.57 2656.27,2027.21C2659.7,2015.86 2663.66,2003.31 2668.16,1989.58C2672.64,1975.85 2677.27,1961.72 2682.02,1947.19C2686.77,1932.66 2691.26,1918.93 2695.49,1905.99C2699.72,1893.05 2703.15,1881.83 2705.79,1872.32C2708.43,1862.81 2709.75,1856.47 2709.75,1853.3C2709.75,1847.49 2707.37,1843.66 2702.62,1841.82C2697.87,1839.97 2692.85,1839.04 2687.57,1839.04L2687.57,1829.53L2819.09,1829.53L2819.09,1839.04C2811.69,1840.1 2806.94,1842.48 2804.83,1846.17C2802.71,1849.87 2800.6,1854.62 2798.49,1860.43C2796.9,1865.72 2793.47,1876.54 2788.19,1892.92C2782.91,1909.29 2776.57,1928.31 2769.17,1949.96C2761.78,1971.62 2754.25,1994.33 2746.59,2018.1C2738.93,2041.87 2731.67,2063.92 2724.8,2084.26C2717.94,2104.59 2712.39,2121.63 2708.17,2135.36C2703.94,2149.1 2701.83,2156.75 2701.83,2158.34C2701.83,2163.62 2709.22,2167.05 2724.01,2168.64L2724.01,2178.15L2556.84,2178.15L2556.84,2168.64C2572.15,2167.05 2579.81,2163.62 2579.81,2158.34C2579.81,2155.7 2578.23,2149.62 2575.06,2140.12C2571.89,2130.61 2567.93,2119.25 2563.18,2106.05C2558.42,2092.84 2553.27,2078.58 2547.72,2063.26C2542.18,2047.94 2536.76,2033.42 2531.48,2019.69C2526.2,2005.95 2521.71,1993.8 2518.01,1983.24C2514.32,1972.68 2511.94,1965.28 2510.88,1961.06L2509.3,1961.06C2508.24,1965.28 2505.87,1972.68 2502.17,1983.24C2498.47,1993.8 2493.98,2005.95 2488.7,2019.69C2483.42,2033.42 2478,2047.94 2472.46,2063.26C2466.91,2078.58 2461.76,2092.84 2457.01,2106.05C2452.25,2119.25 2448.29,2130.61 2445.12,2140.12C2441.95,2149.62 2440.37,2155.7 2440.37,2158.34C2440.37,2161.51 2442.35,2163.75 2446.31,2165.07C2450.27,2166.39 2455.16,2167.58 2460.97,2168.64L2460.97,2178.15L2296.96,2178.15L2296.96,2168.64C2311.22,2167.05 2318.35,2163.62 2318.35,2158.34C2318.35,2156.23 2315.98,2147.51 2311.22,2132.19C2306.47,2116.88 2300.53,2098.26 2293.4,2076.34C2286.27,2054.41 2278.47,2030.65 2270.02,2005.03C2261.57,1979.41 2253.65,1955.51 2246.26,1933.33C2238.86,1911.14 2232.65,1892.26 2227.64,1876.68C2222.62,1861.09 2219.85,1851.98 2219.32,1849.34C2218.26,1845.12 2216.54,1842.34 2214.17,1841.02C2211.79,1839.7 2209.28,1839.04 2206.64,1839.04L2206.64,1829.53L2346.09,1829.53L2346.09,1839.04Z" style="fill:rgb(34,104,255);fill-rule:nonzero;"/>
      </g>
      <g transform="matrix(1,0,0,1,15.3443,-331.946)">
        <path d="M3086.89,1908.76C3072.1,1908.76 3058.1,1911.01 3044.89,1915.5C3031.69,1919.99 3020.07,1926.33 3010.03,1934.51C3000,1942.7 2992.21,1952.61 2986.66,1964.23C2981.11,1975.85 2978.34,1989.05 2978.34,2003.84C2978.34,2018.63 2981.11,2031.84 2986.66,2043.46C2992.21,2055.07 3000,2064.98 3010.03,2073.17C3020.07,2081.35 3031.69,2087.69 3044.89,2092.18C3058.1,2096.67 3072.1,2098.92 3086.89,2098.92C3102.2,2098.92 3116.33,2096.67 3129.27,2092.18C3142.21,2087.69 3153.7,2081.35 3163.74,2073.17C3173.77,2064.98 3181.57,2055.07 3187.11,2043.46C3192.66,2031.84 3195.43,2018.63 3195.43,2003.84C3195.43,1989.05 3192.66,1975.85 3187.11,1964.23C3181.57,1952.61 3173.77,1942.7 3163.74,1934.51C3153.7,1926.33 3142.21,1919.99 3129.27,1915.5C3116.33,1911.01 3102.2,1908.76 3086.89,1908.76ZM3086.89,1824.78C3111.71,1824.78 3136.67,1828.21 3161.76,1835.08C3186.85,1841.95 3209.56,1852.64 3229.89,1867.17C3250.23,1881.69 3266.74,1900.31 3279.41,1923.03C3292.09,1945.74 3298.43,1972.68 3298.43,2003.84C3298.43,2035.53 3292.09,2062.6 3279.41,2085.05C3266.74,2107.5 3250.23,2125.85 3229.89,2140.12C3209.56,2154.38 3186.85,2164.68 3161.76,2171.01C3136.67,2177.35 3111.71,2180.52 3086.89,2180.52C3062.06,2180.52 3037.1,2177.35 3012.01,2171.01C2986.92,2164.68 2964.21,2154.38 2943.88,2140.12C2923.54,2125.85 2907.03,2107.5 2894.36,2085.05C2881.68,2062.6 2875.34,2035.53 2875.34,2003.84C2875.34,1972.68 2881.68,1945.74 2894.36,1923.03C2907.03,1900.31 2923.54,1881.69 2943.88,1867.17C2964.21,1852.64 2986.92,1841.95 3012.01,1835.08C3037.1,1828.21 3062.06,1824.78 3086.89,1824.78Z" style="fill:rgb(34,104,255);fill-rule:nonzero;"/>
      </g>
      <g transform="matrix(1,0,0,1,15.3443,-331.946)">
        <path d="M3615.35,1981.66C3632.25,1981.66 3645.59,1978.09 3655.36,1970.96C3665.13,1963.83 3670.02,1953.13 3670.02,1938.87C3670.02,1926.72 3665.93,1916.56 3657.74,1908.37C3649.55,1900.18 3633.57,1896.09 3609.8,1896.09L3502.84,1896.09L3502.84,1981.66L3615.35,1981.66ZM3403.01,1853.3C3403.01,1847.49 3401.16,1843.8 3397.47,1842.21C3393.77,1840.63 3389.81,1839.57 3385.58,1839.04L3385.58,1829.53L3639.91,1829.53C3679.53,1829.53 3711.09,1838.78 3734.59,1857.26C3758.1,1875.75 3769.85,1903.22 3769.85,1939.66C3769.85,1968.19 3761.53,1990.77 3744.89,2007.4C3728.25,2024.04 3707.26,2037.12 3681.9,2046.62L3752.42,2152.79C3755.06,2157.02 3758.89,2160.72 3763.91,2163.89C3768.92,2167.05 3774.34,2168.64 3780.15,2168.64L3780.15,2178.15L3620.1,2178.15L3620.1,2168.64C3623.8,2168.64 3627.89,2167.98 3632.38,2166.66C3636.87,2165.34 3639.12,2162.56 3639.12,2158.34C3639.12,2155.7 3636.35,2149.1 3630.8,2138.53C3625.25,2127.97 3618.91,2116.61 3611.78,2104.46C3604.65,2092.31 3597.79,2080.69 3591.18,2069.6C3584.58,2058.51 3580.49,2051.38 3578.9,2048.21L3502.84,2048.21L3502.84,2154.38C3502.84,2160.19 3504.82,2163.89 3508.78,2165.47C3512.75,2167.05 3517.63,2168.11 3523.44,2168.64L3523.44,2178.15L3387.17,2178.15L3387.17,2168.64C3390.34,2168.11 3393.77,2167.05 3397.47,2165.47C3401.16,2163.89 3403.01,2160.19 3403.01,2154.38L3403.01,1853.3Z" style="fill:rgb(34,104,255);fill-rule:nonzero;"/>
      </g>
      <g transform="matrix(1,0,0,1,15.3443,-331.946)">
        <path d="M4114.5,2168.64C4118.2,2168.64 4122.82,2167.85 4128.36,2166.26C4133.91,2164.68 4136.68,2160.98 4136.68,2155.17C4136.68,2153.59 4134.83,2149.76 4131.14,2143.68C4127.44,2137.61 4122.82,2130.34 4117.27,2121.89C4111.73,2113.44 4105.52,2104.07 4098.65,2093.77C4091.79,2083.47 4085.18,2073.69 4078.85,2064.45C4072.51,2055.21 4066.83,2046.89 4061.81,2039.49C4056.79,2032.1 4053.23,2026.55 4051.11,2022.86L3982.18,2089.41L3982.18,2154.38C3982.18,2160.19 3984.56,2163.89 3989.32,2165.47C3994.07,2167.05 3999.09,2168.11 4004.37,2168.64L4004.37,2178.15L3856.21,2178.15L3856.21,2168.64C3860.96,2169.17 3865.45,2168.37 3869.68,2166.26C3873.9,2164.15 3876.02,2160.19 3876.02,2154.38L3876.02,1853.3C3876.02,1847.49 3873.9,1843.53 3869.68,1841.42C3865.45,1839.31 3860.96,1838.51 3856.21,1839.04L3856.21,1829.53L4004.37,1829.53L4004.37,1839.04C3999.09,1839.57 3994.07,1840.63 3989.32,1842.21C3984.56,1843.8 3982.18,1847.49 3982.18,1853.3L3982.18,1999.09C3990.11,1992.22 3999.48,1984.03 4010.31,1974.53C4021.14,1965.02 4032.49,1955.11 4044.38,1944.81C4056.26,1934.51 4068.02,1924.35 4079.64,1914.31C4091.26,1904.27 4101.69,1894.9 4110.93,1886.18C4120.18,1877.47 4127.57,1870.2 4133.12,1864.39C4138.66,1858.59 4141.44,1854.89 4141.44,1853.3C4141.44,1847.49 4139.19,1843.8 4134.7,1842.21C4130.21,1840.63 4125.86,1839.57 4121.63,1839.04L4121.63,1829.53L4276.13,1829.53L4276.13,1839.04C4268.2,1840.1 4257.9,1845.64 4245.23,1855.68C4232.55,1865.72 4219.08,1877.2 4204.82,1890.14C4190.56,1903.09 4176.43,1916.29 4162.43,1929.76C4148.44,1943.23 4136.42,1953.92 4126.38,1961.85L4257.9,2156.75C4260.55,2160.98 4263.32,2163.89 4266.22,2165.47C4269.13,2167.05 4272.43,2168.11 4276.13,2168.64L4276.13,2178.15L4114.5,2178.15L4114.5,2168.64Z" style="fill:rgb(34,104,255);fill-rule:nonzero;"/>
      </g>
    </g>
  </g>
</svg>
