<?xml version="1.0" encoding="UTF-8" standalone="no"?>
<svg viewBox="0 0 640 512" version="1.1" id="svg4">
  <defs id="defs8"/>
  <path d="m 64,96 h 512 c 17.7,0 32,-14.3 32,-32 0,-17.7 -14.3,-32 -32,-32 H 64 C 46.3,32 32,46.3 32,64 32,81.7 46.3,96 64,96 Z m 141.4,137.4 c -12.5,12.5 -12.5,32.8 0,45.3 12.5,12.5 32.8,12.5 45.3,0 L 292,237.3 V 448 c 0,17.7 14.3,32 32,32 17.7,0 32,-14.3 32,-32 V 237.3 l 41.4,41.4 c 12.5,12.5 32.8,12.5 45.3,0 12.5,-12.5 12.5,-32.8 0,-45.3 l -96,-96 c -12.5,-12.5 -32.8,-12.5 -45.3,0 z" id="path2"/>
</svg>
